<svg width="40" height="40" viewBox="0 0 40 40" fill="none" xmlns="http://www.w3.org/2000/svg">
<rect width="40" height="40" rx="20" fill="#37437D"/>
<path fill-rule="evenodd" clip-rule="evenodd" d="M19.0625 13.125C15.7833 13.125 13.125 15.7833 13.125 19.0625C13.125 22.3417 15.7833 25 19.0625 25C22.3417 25 25 22.3417 25 19.0625C25 15.7833 22.3417 13.125 19.0625 13.125ZM11.875 19.0625C11.875 15.093 15.093 11.875 19.0625 11.875C23.032 11.875 26.25 15.093 26.25 19.0625C26.25 23.032 23.032 26.25 19.0625 26.25C15.093 26.25 11.875 23.032 11.875 19.0625Z" fill="white"/>
<path fill-rule="evenodd" clip-rule="evenodd" d="M23.2612 23.2612C23.5053 23.0171 23.901 23.0171 24.1451 23.2612L27.9419 27.0581C28.186 27.3021 28.186 27.6979 27.9419 27.9419C27.6979 28.186 27.3021 28.186 27.0581 27.9419L23.2612 24.1451C23.0171 23.901 23.0171 23.5053 23.2612 23.2612Z" fill="white"/>
</svg>
