<svg width="20" height="19" viewBox="0 0 20 19" fill="none" xmlns="http://www.w3.org/2000/svg">
<path fill-rule="evenodd" clip-rule="evenodd" d="M9.58398 0.375962C9.8359 0.208013 10.1641 0.208013 10.416 0.375962L19.416 6.37596C19.6247 6.51506 19.75 6.74924 19.75 7V16.75C19.75 17.1478 19.592 17.5294 19.3107 17.8107C19.0294 18.092 18.6478 18.25 18.25 18.25H1.75C1.35218 18.25 0.970647 18.092 0.689341 17.8107C0.408037 17.5294 0.250001 17.1478 0.250001 16.75V7C0.250001 6.74924 0.375327 6.51506 0.583976 6.37596L9.58398 0.375962ZM1.75 7.40139V16.75H18.25V7.40139L10 1.90139L1.75 7.40139Z" fill="#37437D"/>
<path fill-rule="evenodd" clip-rule="evenodd" d="M8.9719 11.8172C9.21093 12.1555 9.13046 12.6235 8.79217 12.8625L1.66717 17.8969C1.32889 18.1359 0.860879 18.0555 0.621852 17.7172C0.382824 17.3789 0.463291 16.9109 0.801579 16.6719L7.92658 11.6375C8.26487 11.3984 8.73287 11.4789 8.9719 11.8172Z" fill="#37437D"/>
<path fill-rule="evenodd" clip-rule="evenodd" d="M11.0281 11.8172C11.2671 11.4789 11.7351 11.3984 12.0734 11.6375L19.1984 16.6719C19.5367 16.9109 19.6172 17.3789 19.3782 17.7172C19.1391 18.0555 18.6711 18.1359 18.3328 17.8969L11.2078 12.8625C10.8695 12.6235 10.7891 12.1555 11.0281 11.8172Z" fill="#37437D"/>
<path fill-rule="evenodd" clip-rule="evenodd" d="M0.389439 6.56444C0.629992 6.22723 1.09836 6.14888 1.43556 6.38944L8.59948 11.5H11.4005L18.5644 6.38944C18.9016 6.14888 19.37 6.22723 19.6106 6.56444C19.8511 6.90164 19.7728 7.37001 19.4356 7.61056L12.0762 12.8606C11.9491 12.9513 11.7968 13 11.6406 13H8.35938C8.20321 13 8.05095 12.9513 7.92382 12.8606L0.564441 7.61056C0.227236 7.37001 0.148885 6.90164 0.389439 6.56444Z" fill="#37437D"/>
</svg>
